<mxfile host="Electron" agent="Mozilla/5.0 (Macintosh; Intel Mac OS X 10_15_7) AppleWebKit/537.36 (KHTML, like Gecko) draw.io/24.7.17 Chrome/128.0.6613.36 Electron/32.0.1 Safari/537.36" version="24.7.17">
  <diagram name="Page-1" id="dvCPTr0IZbr0PJmfTNtO">
    <mxGraphModel dx="513" dy="412" grid="0" gridSize="10" guides="1" tooltips="1" connect="1" arrows="1" fold="1" page="1" pageScale="1" pageWidth="850" pageHeight="1100" math="0" shadow="0">
      <root>
        <mxCell id="0" />
        <mxCell id="1" parent="0" />
        <mxCell id="XWr1rrjIG2FlSfD_V7mO-40" value="" style="group" vertex="1" connectable="0" parent="1">
          <mxGeometry x="60" y="170" width="280" height="220" as="geometry" />
        </mxCell>
        <mxCell id="XWr1rrjIG2FlSfD_V7mO-2" value="" style="endArrow=none;html=1;rounded=0;exitX=0.5;exitY=1;exitDx=0;exitDy=0;" edge="1" parent="XWr1rrjIG2FlSfD_V7mO-40" source="XWr1rrjIG2FlSfD_V7mO-13">
          <mxGeometry width="50" height="50" relative="1" as="geometry">
            <mxPoint x="20" y="150" as="sourcePoint" />
            <mxPoint x="260" y="30" as="targetPoint" />
          </mxGeometry>
        </mxCell>
        <mxCell id="XWr1rrjIG2FlSfD_V7mO-3" value="" style="endArrow=none;html=1;rounded=0;" edge="1" parent="XWr1rrjIG2FlSfD_V7mO-40">
          <mxGeometry width="50" height="50" relative="1" as="geometry">
            <mxPoint x="20" y="190" as="sourcePoint" />
            <mxPoint x="260" y="190" as="targetPoint" />
          </mxGeometry>
        </mxCell>
        <mxCell id="XWr1rrjIG2FlSfD_V7mO-4" value="" style="endArrow=oval;dashed=1;html=1;rounded=0;endFill=1;" edge="1" parent="XWr1rrjIG2FlSfD_V7mO-40">
          <mxGeometry width="50" height="50" relative="1" as="geometry">
            <mxPoint x="20" y="190" as="sourcePoint" />
            <mxPoint x="20" y="150" as="targetPoint" />
          </mxGeometry>
        </mxCell>
        <mxCell id="XWr1rrjIG2FlSfD_V7mO-5" value="" style="endArrow=oval;dashed=1;html=1;rounded=0;endFill=1;" edge="1" parent="XWr1rrjIG2FlSfD_V7mO-40">
          <mxGeometry width="50" height="50" relative="1" as="geometry">
            <mxPoint x="140" y="190" as="sourcePoint" />
            <mxPoint x="140" y="90" as="targetPoint" />
          </mxGeometry>
        </mxCell>
        <mxCell id="XWr1rrjIG2FlSfD_V7mO-6" value="" style="endArrow=oval;dashed=1;html=1;rounded=0;endFill=1;" edge="1" parent="XWr1rrjIG2FlSfD_V7mO-40">
          <mxGeometry width="50" height="50" relative="1" as="geometry">
            <mxPoint x="260" y="190" as="sourcePoint" />
            <mxPoint x="260" y="30" as="targetPoint" />
          </mxGeometry>
        </mxCell>
        <mxCell id="XWr1rrjIG2FlSfD_V7mO-8" value="&lt;font face=&quot;Verdana&quot;&gt;l&lt;/font&gt;" style="text;html=1;align=center;verticalAlign=middle;whiteSpace=wrap;rounded=0;" vertex="1" parent="XWr1rrjIG2FlSfD_V7mO-40">
          <mxGeometry y="190" width="40" height="30" as="geometry" />
        </mxCell>
        <mxCell id="XWr1rrjIG2FlSfD_V7mO-10" value="&lt;font face=&quot;Verdana&quot;&gt;m&lt;/font&gt;" style="text;html=1;align=center;verticalAlign=middle;whiteSpace=wrap;rounded=0;" vertex="1" parent="XWr1rrjIG2FlSfD_V7mO-40">
          <mxGeometry x="120" y="190" width="40" height="30" as="geometry" />
        </mxCell>
        <mxCell id="XWr1rrjIG2FlSfD_V7mO-11" value="&lt;font face=&quot;Verdana&quot;&gt;r&lt;/font&gt;" style="text;html=1;align=center;verticalAlign=middle;whiteSpace=wrap;rounded=0;" vertex="1" parent="XWr1rrjIG2FlSfD_V7mO-40">
          <mxGeometry x="240" y="190" width="40" height="30" as="geometry" />
        </mxCell>
        <mxCell id="XWr1rrjIG2FlSfD_V7mO-13" value="&lt;font face=&quot;Verdana&quot;&gt;L&lt;/font&gt;" style="text;html=1;align=center;verticalAlign=middle;whiteSpace=wrap;rounded=0;" vertex="1" parent="XWr1rrjIG2FlSfD_V7mO-40">
          <mxGeometry y="120" width="40" height="30" as="geometry" />
        </mxCell>
        <mxCell id="XWr1rrjIG2FlSfD_V7mO-14" value="&lt;font face=&quot;Verdana&quot;&gt;M&lt;/font&gt;" style="text;html=1;align=center;verticalAlign=middle;whiteSpace=wrap;rounded=0;" vertex="1" parent="XWr1rrjIG2FlSfD_V7mO-40">
          <mxGeometry x="120" y="60" width="40" height="30" as="geometry" />
        </mxCell>
        <mxCell id="XWr1rrjIG2FlSfD_V7mO-15" value="&lt;font face=&quot;Verdana&quot;&gt;R&lt;/font&gt;" style="text;html=1;align=center;verticalAlign=middle;whiteSpace=wrap;rounded=0;" vertex="1" parent="XWr1rrjIG2FlSfD_V7mO-40">
          <mxGeometry x="240" width="40" height="30" as="geometry" />
        </mxCell>
        <mxCell id="XWr1rrjIG2FlSfD_V7mO-19" value="" style="group" vertex="1" connectable="0" parent="XWr1rrjIG2FlSfD_V7mO-40">
          <mxGeometry x="70" y="80" width="40" height="40" as="geometry" />
        </mxCell>
        <mxCell id="XWr1rrjIG2FlSfD_V7mO-16" value="" style="ellipse;fillColor=strokeColor;html=1;" vertex="1" parent="XWr1rrjIG2FlSfD_V7mO-19">
          <mxGeometry x="15" y="30" width="10" height="10" as="geometry" />
        </mxCell>
        <mxCell id="XWr1rrjIG2FlSfD_V7mO-18" value="&lt;font face=&quot;Verdana&quot;&gt;t&lt;sub&gt;1&lt;/sub&gt;&lt;/font&gt;" style="text;html=1;align=center;verticalAlign=middle;whiteSpace=wrap;rounded=0;" vertex="1" parent="XWr1rrjIG2FlSfD_V7mO-19">
          <mxGeometry width="40" height="30" as="geometry" />
        </mxCell>
        <mxCell id="XWr1rrjIG2FlSfD_V7mO-20" value="" style="group" vertex="1" connectable="0" parent="XWr1rrjIG2FlSfD_V7mO-40">
          <mxGeometry x="190" y="20" width="40" height="40" as="geometry" />
        </mxCell>
        <mxCell id="XWr1rrjIG2FlSfD_V7mO-21" value="" style="ellipse;fillColor=strokeColor;html=1;" vertex="1" parent="XWr1rrjIG2FlSfD_V7mO-20">
          <mxGeometry x="15" y="30" width="10" height="10" as="geometry" />
        </mxCell>
        <mxCell id="XWr1rrjIG2FlSfD_V7mO-22" value="&lt;font face=&quot;Verdana&quot;&gt;t&lt;sub&gt;2&lt;/sub&gt;&lt;/font&gt;" style="text;html=1;align=center;verticalAlign=middle;whiteSpace=wrap;rounded=0;" vertex="1" parent="XWr1rrjIG2FlSfD_V7mO-20">
          <mxGeometry width="40" height="30" as="geometry" />
        </mxCell>
        <mxCell id="XWr1rrjIG2FlSfD_V7mO-90" value="" style="endArrow=none;dashed=1;html=1;dashPattern=1 3;strokeWidth=2;rounded=0;" edge="1" parent="XWr1rrjIG2FlSfD_V7mO-40">
          <mxGeometry width="50" height="50" relative="1" as="geometry">
            <mxPoint x="-9" y="166" as="sourcePoint" />
            <mxPoint x="18" y="151" as="targetPoint" />
          </mxGeometry>
        </mxCell>
        <mxCell id="XWr1rrjIG2FlSfD_V7mO-81" value="" style="group" vertex="1" connectable="0" parent="1">
          <mxGeometry x="60" y="412" width="280" height="216" as="geometry" />
        </mxCell>
        <mxCell id="XWr1rrjIG2FlSfD_V7mO-42" value="" style="endArrow=none;html=1;rounded=0;" edge="1" parent="XWr1rrjIG2FlSfD_V7mO-81">
          <mxGeometry width="50" height="50" relative="1" as="geometry">
            <mxPoint x="20" y="96" as="sourcePoint" />
            <mxPoint x="180" y="26" as="targetPoint" />
          </mxGeometry>
        </mxCell>
        <mxCell id="XWr1rrjIG2FlSfD_V7mO-43" value="" style="endArrow=none;html=1;rounded=0;" edge="1" parent="XWr1rrjIG2FlSfD_V7mO-81">
          <mxGeometry width="50" height="50" relative="1" as="geometry">
            <mxPoint x="20" y="186" as="sourcePoint" />
            <mxPoint x="260" y="186" as="targetPoint" />
          </mxGeometry>
        </mxCell>
        <mxCell id="XWr1rrjIG2FlSfD_V7mO-44" value="" style="endArrow=oval;dashed=1;html=1;rounded=0;endFill=1;" edge="1" parent="XWr1rrjIG2FlSfD_V7mO-81">
          <mxGeometry width="50" height="50" relative="1" as="geometry">
            <mxPoint x="20" y="186" as="sourcePoint" />
            <mxPoint x="20" y="96" as="targetPoint" />
          </mxGeometry>
        </mxCell>
        <mxCell id="XWr1rrjIG2FlSfD_V7mO-45" value="" style="endArrow=oval;dashed=1;html=1;rounded=0;endFill=1;exitX=0.5;exitY=0;exitDx=0;exitDy=0;" edge="1" parent="XWr1rrjIG2FlSfD_V7mO-81" source="XWr1rrjIG2FlSfD_V7mO-48">
          <mxGeometry width="50" height="50" relative="1" as="geometry">
            <mxPoint x="140" y="184" as="sourcePoint" />
            <mxPoint x="140" y="44" as="targetPoint" />
          </mxGeometry>
        </mxCell>
        <mxCell id="XWr1rrjIG2FlSfD_V7mO-46" value="" style="endArrow=oval;dashed=1;html=1;rounded=0;endFill=1;" edge="1" parent="XWr1rrjIG2FlSfD_V7mO-81">
          <mxGeometry width="50" height="50" relative="1" as="geometry">
            <mxPoint x="260" y="186" as="sourcePoint" />
            <mxPoint x="260" y="106" as="targetPoint" />
          </mxGeometry>
        </mxCell>
        <mxCell id="XWr1rrjIG2FlSfD_V7mO-47" value="&lt;font face=&quot;Verdana&quot;&gt;l&lt;/font&gt;" style="text;html=1;align=center;verticalAlign=middle;whiteSpace=wrap;rounded=0;" vertex="1" parent="XWr1rrjIG2FlSfD_V7mO-81">
          <mxGeometry y="186" width="40" height="30" as="geometry" />
        </mxCell>
        <mxCell id="XWr1rrjIG2FlSfD_V7mO-48" value="&lt;font face=&quot;Verdana&quot;&gt;m&lt;/font&gt;" style="text;html=1;align=center;verticalAlign=middle;whiteSpace=wrap;rounded=0;" vertex="1" parent="XWr1rrjIG2FlSfD_V7mO-81">
          <mxGeometry x="120" y="186" width="40" height="30" as="geometry" />
        </mxCell>
        <mxCell id="XWr1rrjIG2FlSfD_V7mO-49" value="&lt;font face=&quot;Verdana&quot;&gt;r&lt;/font&gt;" style="text;html=1;align=center;verticalAlign=middle;whiteSpace=wrap;rounded=0;" vertex="1" parent="XWr1rrjIG2FlSfD_V7mO-81">
          <mxGeometry x="240" y="186" width="40" height="30" as="geometry" />
        </mxCell>
        <mxCell id="XWr1rrjIG2FlSfD_V7mO-50" value="&lt;font face=&quot;Verdana&quot;&gt;L&lt;/font&gt;" style="text;html=1;align=center;verticalAlign=middle;whiteSpace=wrap;rounded=0;" vertex="1" parent="XWr1rrjIG2FlSfD_V7mO-81">
          <mxGeometry y="66" width="40" height="30" as="geometry" />
        </mxCell>
        <mxCell id="XWr1rrjIG2FlSfD_V7mO-51" value="&lt;font face=&quot;Verdana&quot;&gt;M&lt;/font&gt;" style="text;html=1;align=center;verticalAlign=middle;whiteSpace=wrap;rounded=0;" vertex="1" parent="XWr1rrjIG2FlSfD_V7mO-81">
          <mxGeometry x="120" y="14" width="40" height="30" as="geometry" />
        </mxCell>
        <mxCell id="XWr1rrjIG2FlSfD_V7mO-52" value="&lt;font face=&quot;Verdana&quot;&gt;R&lt;/font&gt;" style="text;html=1;align=center;verticalAlign=middle;whiteSpace=wrap;rounded=0;" vertex="1" parent="XWr1rrjIG2FlSfD_V7mO-81">
          <mxGeometry x="240" y="76" width="40" height="30" as="geometry" />
        </mxCell>
        <mxCell id="XWr1rrjIG2FlSfD_V7mO-53" value="" style="group" vertex="1" connectable="0" parent="XWr1rrjIG2FlSfD_V7mO-81">
          <mxGeometry x="40" y="44" width="40" height="40" as="geometry" />
        </mxCell>
        <mxCell id="XWr1rrjIG2FlSfD_V7mO-54" value="" style="ellipse;fillColor=strokeColor;html=1;" vertex="1" parent="XWr1rrjIG2FlSfD_V7mO-53">
          <mxGeometry x="15" y="30" width="10" height="10" as="geometry" />
        </mxCell>
        <mxCell id="XWr1rrjIG2FlSfD_V7mO-55" value="&lt;font face=&quot;Verdana&quot;&gt;t&lt;sub&gt;3&lt;/sub&gt;&lt;/font&gt;" style="text;html=1;align=center;verticalAlign=middle;whiteSpace=wrap;rounded=0;" vertex="1" parent="XWr1rrjIG2FlSfD_V7mO-53">
          <mxGeometry width="40" height="30" as="geometry" />
        </mxCell>
        <mxCell id="XWr1rrjIG2FlSfD_V7mO-56" value="" style="group" vertex="1" connectable="0" parent="XWr1rrjIG2FlSfD_V7mO-81">
          <mxGeometry x="140" width="40" height="40" as="geometry" />
        </mxCell>
        <mxCell id="XWr1rrjIG2FlSfD_V7mO-57" value="" style="ellipse;fillColor=strokeColor;html=1;" vertex="1" parent="XWr1rrjIG2FlSfD_V7mO-56">
          <mxGeometry x="15" y="30" width="10" height="10" as="geometry" />
        </mxCell>
        <mxCell id="XWr1rrjIG2FlSfD_V7mO-58" value="&lt;font face=&quot;Verdana&quot;&gt;t&lt;sub&gt;4&lt;/sub&gt;&lt;/font&gt;" style="text;html=1;align=center;verticalAlign=middle;whiteSpace=wrap;rounded=0;" vertex="1" parent="XWr1rrjIG2FlSfD_V7mO-56">
          <mxGeometry width="40" height="30" as="geometry" />
        </mxCell>
        <mxCell id="XWr1rrjIG2FlSfD_V7mO-77" value="" style="endArrow=none;html=1;rounded=0;" edge="1" parent="XWr1rrjIG2FlSfD_V7mO-81">
          <mxGeometry width="50" height="50" relative="1" as="geometry">
            <mxPoint x="180" y="146" as="sourcePoint" />
            <mxPoint x="260" y="106" as="targetPoint" />
          </mxGeometry>
        </mxCell>
        <mxCell id="XWr1rrjIG2FlSfD_V7mO-78" value="" style="group" vertex="1" connectable="0" parent="XWr1rrjIG2FlSfD_V7mO-81">
          <mxGeometry x="190" y="97" width="40" height="40" as="geometry" />
        </mxCell>
        <mxCell id="XWr1rrjIG2FlSfD_V7mO-79" value="" style="ellipse;fillColor=strokeColor;html=1;" vertex="1" parent="XWr1rrjIG2FlSfD_V7mO-78">
          <mxGeometry x="15" y="30" width="10" height="10" as="geometry" />
        </mxCell>
        <mxCell id="XWr1rrjIG2FlSfD_V7mO-80" value="&lt;font face=&quot;Verdana&quot;&gt;t&lt;sub&gt;5&lt;/sub&gt;&lt;/font&gt;" style="text;html=1;align=center;verticalAlign=middle;whiteSpace=wrap;rounded=0;" vertex="1" parent="XWr1rrjIG2FlSfD_V7mO-78">
          <mxGeometry width="40" height="30" as="geometry" />
        </mxCell>
        <mxCell id="XWr1rrjIG2FlSfD_V7mO-89" value="" style="endArrow=none;dashed=1;html=1;dashPattern=1 3;strokeWidth=2;rounded=0;" edge="1" parent="XWr1rrjIG2FlSfD_V7mO-81">
          <mxGeometry width="50" height="50" relative="1" as="geometry">
            <mxPoint x="154" y="159" as="sourcePoint" />
            <mxPoint x="180" y="146" as="targetPoint" />
          </mxGeometry>
        </mxCell>
        <mxCell id="XWr1rrjIG2FlSfD_V7mO-87" value="" style="endArrow=none;dashed=1;html=1;dashPattern=1 3;strokeWidth=2;rounded=0;exitX=0.989;exitY=0.874;exitDx=0;exitDy=0;exitPerimeter=0;" edge="1" parent="XWr1rrjIG2FlSfD_V7mO-81">
          <mxGeometry width="50" height="50" relative="1" as="geometry">
            <mxPoint x="182" y="25.220000000000027" as="sourcePoint" />
            <mxPoint x="209.44" y="13" as="targetPoint" />
          </mxGeometry>
        </mxCell>
        <mxCell id="XWr1rrjIG2FlSfD_V7mO-86" value="" style="group" vertex="1" connectable="0" parent="1">
          <mxGeometry x="60" y="654" width="280" height="216" as="geometry" />
        </mxCell>
        <mxCell id="XWr1rrjIG2FlSfD_V7mO-60" value="" style="endArrow=none;html=1;rounded=0;" edge="1" parent="XWr1rrjIG2FlSfD_V7mO-86">
          <mxGeometry width="50" height="50" relative="1" as="geometry">
            <mxPoint x="20" y="56" as="sourcePoint" />
            <mxPoint x="80" y="26" as="targetPoint" />
          </mxGeometry>
        </mxCell>
        <mxCell id="XWr1rrjIG2FlSfD_V7mO-61" value="" style="endArrow=none;html=1;rounded=0;" edge="1" parent="XWr1rrjIG2FlSfD_V7mO-86">
          <mxGeometry width="50" height="50" relative="1" as="geometry">
            <mxPoint x="20" y="186" as="sourcePoint" />
            <mxPoint x="260" y="186" as="targetPoint" />
          </mxGeometry>
        </mxCell>
        <mxCell id="XWr1rrjIG2FlSfD_V7mO-62" value="" style="endArrow=oval;dashed=1;html=1;rounded=0;endFill=1;" edge="1" parent="XWr1rrjIG2FlSfD_V7mO-86">
          <mxGeometry width="50" height="50" relative="1" as="geometry">
            <mxPoint x="20" y="186" as="sourcePoint" />
            <mxPoint x="20" y="56" as="targetPoint" />
          </mxGeometry>
        </mxCell>
        <mxCell id="XWr1rrjIG2FlSfD_V7mO-63" value="" style="endArrow=oval;dashed=1;html=1;rounded=0;endFill=1;exitX=0.5;exitY=0;exitDx=0;exitDy=0;" edge="1" parent="XWr1rrjIG2FlSfD_V7mO-86" source="XWr1rrjIG2FlSfD_V7mO-66">
          <mxGeometry width="50" height="50" relative="1" as="geometry">
            <mxPoint x="140" y="189" as="sourcePoint" />
            <mxPoint x="140" y="119" as="targetPoint" />
          </mxGeometry>
        </mxCell>
        <mxCell id="XWr1rrjIG2FlSfD_V7mO-64" value="" style="endArrow=oval;dashed=1;html=1;rounded=0;endFill=1;" edge="1" parent="XWr1rrjIG2FlSfD_V7mO-86">
          <mxGeometry width="50" height="50" relative="1" as="geometry">
            <mxPoint x="260" y="186" as="sourcePoint" />
            <mxPoint x="260" y="66" as="targetPoint" />
          </mxGeometry>
        </mxCell>
        <mxCell id="XWr1rrjIG2FlSfD_V7mO-65" value="&lt;font face=&quot;Verdana&quot;&gt;l&lt;/font&gt;" style="text;html=1;align=center;verticalAlign=middle;whiteSpace=wrap;rounded=0;" vertex="1" parent="XWr1rrjIG2FlSfD_V7mO-86">
          <mxGeometry y="186" width="40" height="30" as="geometry" />
        </mxCell>
        <mxCell id="XWr1rrjIG2FlSfD_V7mO-66" value="&lt;font face=&quot;Verdana&quot;&gt;m&lt;/font&gt;" style="text;html=1;align=center;verticalAlign=middle;whiteSpace=wrap;rounded=0;" vertex="1" parent="XWr1rrjIG2FlSfD_V7mO-86">
          <mxGeometry x="120" y="186" width="40" height="30" as="geometry" />
        </mxCell>
        <mxCell id="XWr1rrjIG2FlSfD_V7mO-67" value="&lt;font face=&quot;Verdana&quot;&gt;r&lt;/font&gt;" style="text;html=1;align=center;verticalAlign=middle;whiteSpace=wrap;rounded=0;" vertex="1" parent="XWr1rrjIG2FlSfD_V7mO-86">
          <mxGeometry x="240" y="186" width="40" height="30" as="geometry" />
        </mxCell>
        <mxCell id="XWr1rrjIG2FlSfD_V7mO-68" value="&lt;font face=&quot;Verdana&quot;&gt;L&lt;/font&gt;" style="text;html=1;align=center;verticalAlign=middle;whiteSpace=wrap;rounded=0;" vertex="1" parent="XWr1rrjIG2FlSfD_V7mO-86">
          <mxGeometry y="26" width="40" height="30" as="geometry" />
        </mxCell>
        <mxCell id="XWr1rrjIG2FlSfD_V7mO-69" value="&lt;font face=&quot;Verdana&quot;&gt;M&lt;/font&gt;" style="text;html=1;align=center;verticalAlign=middle;whiteSpace=wrap;rounded=0;" vertex="1" parent="XWr1rrjIG2FlSfD_V7mO-86">
          <mxGeometry x="120" y="89" width="40" height="30" as="geometry" />
        </mxCell>
        <mxCell id="XWr1rrjIG2FlSfD_V7mO-70" value="&lt;font face=&quot;Verdana&quot;&gt;R&lt;/font&gt;" style="text;html=1;align=center;verticalAlign=middle;whiteSpace=wrap;rounded=0;" vertex="1" parent="XWr1rrjIG2FlSfD_V7mO-86">
          <mxGeometry x="240" y="36" width="40" height="30" as="geometry" />
        </mxCell>
        <mxCell id="XWr1rrjIG2FlSfD_V7mO-71" value="" style="group" vertex="1" connectable="0" parent="XWr1rrjIG2FlSfD_V7mO-86">
          <mxGeometry x="40" y="1" width="40" height="40" as="geometry" />
        </mxCell>
        <mxCell id="XWr1rrjIG2FlSfD_V7mO-72" value="" style="ellipse;fillColor=strokeColor;html=1;" vertex="1" parent="XWr1rrjIG2FlSfD_V7mO-71">
          <mxGeometry x="15" y="30" width="10" height="10" as="geometry" />
        </mxCell>
        <mxCell id="XWr1rrjIG2FlSfD_V7mO-73" value="&lt;font face=&quot;Verdana&quot;&gt;t&lt;sub&gt;6&lt;/sub&gt;&lt;/font&gt;" style="text;html=1;align=center;verticalAlign=middle;whiteSpace=wrap;rounded=0;" vertex="1" parent="XWr1rrjIG2FlSfD_V7mO-71">
          <mxGeometry width="40" height="30" as="geometry" />
        </mxCell>
        <mxCell id="XWr1rrjIG2FlSfD_V7mO-74" value="" style="group" vertex="1" connectable="0" parent="XWr1rrjIG2FlSfD_V7mO-86">
          <mxGeometry x="91" y="97" width="40" height="40" as="geometry" />
        </mxCell>
        <mxCell id="XWr1rrjIG2FlSfD_V7mO-75" value="" style="ellipse;fillColor=strokeColor;html=1;" vertex="1" parent="XWr1rrjIG2FlSfD_V7mO-74">
          <mxGeometry x="15" y="30" width="10" height="10" as="geometry" />
        </mxCell>
        <mxCell id="XWr1rrjIG2FlSfD_V7mO-76" value="&lt;font face=&quot;Verdana&quot;&gt;t&lt;sub&gt;7&lt;/sub&gt;&lt;/font&gt;" style="text;html=1;align=center;verticalAlign=middle;whiteSpace=wrap;rounded=0;" vertex="1" parent="XWr1rrjIG2FlSfD_V7mO-74">
          <mxGeometry width="40" height="30" as="geometry" />
        </mxCell>
        <mxCell id="XWr1rrjIG2FlSfD_V7mO-82" value="" style="endArrow=none;html=1;rounded=0;" edge="1" parent="XWr1rrjIG2FlSfD_V7mO-86">
          <mxGeometry width="50" height="50" relative="1" as="geometry">
            <mxPoint x="80" y="146" as="sourcePoint" />
            <mxPoint x="260" y="66" as="targetPoint" />
          </mxGeometry>
        </mxCell>
        <mxCell id="XWr1rrjIG2FlSfD_V7mO-83" value="" style="group" vertex="1" connectable="0" parent="XWr1rrjIG2FlSfD_V7mO-86">
          <mxGeometry x="200" y="49" width="40" height="40" as="geometry" />
        </mxCell>
        <mxCell id="XWr1rrjIG2FlSfD_V7mO-84" value="" style="ellipse;fillColor=strokeColor;html=1;" vertex="1" parent="XWr1rrjIG2FlSfD_V7mO-83">
          <mxGeometry x="15" y="30" width="10" height="10" as="geometry" />
        </mxCell>
        <mxCell id="XWr1rrjIG2FlSfD_V7mO-85" value="&lt;font face=&quot;Verdana&quot;&gt;t&lt;sub&gt;8&lt;/sub&gt;&lt;/font&gt;" style="text;html=1;align=center;verticalAlign=middle;whiteSpace=wrap;rounded=0;" vertex="1" parent="XWr1rrjIG2FlSfD_V7mO-83">
          <mxGeometry width="40" height="30" as="geometry" />
        </mxCell>
        <mxCell id="XWr1rrjIG2FlSfD_V7mO-92" value="" style="endArrow=none;dashed=1;html=1;dashPattern=1 3;strokeWidth=2;rounded=0;exitX=0.989;exitY=0.874;exitDx=0;exitDy=0;exitPerimeter=0;" edge="1" parent="XWr1rrjIG2FlSfD_V7mO-86">
          <mxGeometry width="50" height="50" relative="1" as="geometry">
            <mxPoint x="83" y="25" as="sourcePoint" />
            <mxPoint x="110" y="11" as="targetPoint" />
          </mxGeometry>
        </mxCell>
        <mxCell id="XWr1rrjIG2FlSfD_V7mO-93" value="" style="endArrow=none;dashed=1;html=1;dashPattern=1 3;strokeWidth=2;rounded=0;exitX=0.989;exitY=0.874;exitDx=0;exitDy=0;exitPerimeter=0;" edge="1" parent="XWr1rrjIG2FlSfD_V7mO-86">
          <mxGeometry width="50" height="50" relative="1" as="geometry">
            <mxPoint x="53" y="158" as="sourcePoint" />
            <mxPoint x="80" y="146" as="targetPoint" />
          </mxGeometry>
        </mxCell>
        <mxCell id="XWr1rrjIG2FlSfD_V7mO-91" value="" style="endArrow=none;dashed=1;html=1;dashPattern=1 3;strokeWidth=2;rounded=0;exitX=0.989;exitY=0.874;exitDx=0;exitDy=0;exitPerimeter=0;" edge="1" parent="1">
          <mxGeometry width="50" height="50" relative="1" as="geometry">
            <mxPoint x="325" y="197" as="sourcePoint" />
            <mxPoint x="352" y="183" as="targetPoint" />
          </mxGeometry>
        </mxCell>
      </root>
    </mxGraphModel>
  </diagram>
</mxfile>
